#!OML:ASF E:\VariousWalksJay\Project 1\Capture day 1\Session 1\Actor2.ASF
:FULLY-SPECIFIED
:DEGREES
1137
root 2.04329 13.1146 13.215 42.1165 12.0916 -0.789272
lowerback 28.3822 -4.81924 12.1934
upperback 9.99642 -2.45946 3.94418
thorax -4.57423 -1.0453 -1.78037
lowerneck 4.31011 -3.23704 -7.03456
upperneck -8.7054 -3.84148 12.8273
head -2.86273 -2.25358 5.20576
rclavicle -1.27222e-014 -2.08724e-015
rhumerus 89.6597 -34.9729 -21.916
rradius 23.3749
rwrist 10.7253
rhand -4.04967 -15.1167
rfingers 7.12502
rthumb 21.7063 -43.9198
lclavicle -1.27222e-014 -2.08724e-015
lhumerus 91.9183 32.4216 23.2859
lradius 25.0626
lwrist 15.9487
lhand -8.92553 10.8112
lfingers 7.12502
lthumb 17.0181 40.0857
rfemur -107.985 3.91022 10.6047
rtibia 85.7382
rfoot -15.3846 -6.78811
rtoes -6.02867
lfemur 8.22553 20.3447 -3.09746
ltibia 9.54166e-015
lfoot -27.5271 22.3775
ltoes -12.2007
1138
root 2.04667 13.0955 13.2235 42.1376 11.9981 -0.749952
lowerback 28.3796 -4.88389 12.2273
upperback 9.98749 -2.53808 3.84266
thorax -4.5971 -1.08129 -1.88626
lowerneck 4.20266 -3.2573 -6.99078
upperneck -8.65399 -3.86342 12.8553
head -2.82745 -2.26317 5.20373
rclavicle -2.66371e-014 -1.27222e-014
rhumerus 90.0389 -34.8467 -22.2663
rradius 23.3404
rwrist 10.4764
rhand -4.28783 -15.2786
rfingers 7.12502
rthumb 21.4775 -44.108
lclavicle -2.66371e-014 -1.27222e-014
lhumerus 91.73 32.5611 23.4131
lradius 24.9119
lwrist 16.4386
lhand -8.78129 11.027
lfingers 7.12502
lthumb 17.157 40.2896
rfemur -108.097 3.91031 10.537
rtibia 85.9368
rfoot -15.5521 -6.72316
rtoes -6.06931
lfemur 8.27817 20.3123 -3.24059
ltibia -9.54166e-015
lfoot -27.8979 22.5081
ltoes -12.1718
1139
root 2.04959 13.0758 13.2317 42.1301 11.9158 -0.730892
lowerback 28.3776 -4.96359 12.2626
upperback 9.98379 -2.63554 3.73664
thorax -4.61702 -1.12581 -1.99168
lowerneck 4.09069 -3.25958 -6.93545
upperneck -8.60039 -3.85969 12.888
head -2.79356 -2.26024 5.20057
rclavicle -4.09496e-014 -5.96354e-015
rhumerus 90.1851 -34.7022 -22.3003
rradius 23.3412
rwrist 10.2766
rhand -4.75171 -15.3837
rfingers 7.12502
rthumb 21.032 -44.2632
lclavicle -4.09496e-014 -5.96354e-015
lhumerus 91.566 32.6713 23.5618
lradius 24.7429
lwrist 16.697
lhand -8.89281 11.193
lfingers 7.12502
lthumb 17.0496 40.4648
rfemur -108.192 3.91564 10.4999
rtibia 86.1491
rfoot -15.7128 -6.62996
rtoes -6.13306
lfemur 8.36121 20.2773 -3.34539
ltibia -6.36111e-015
lfoot -28.2707 22.638
ltoes -12.169
1140
root 2.05206 13.0554 13.2395 42.0969 11.845 -0.739528
lowerback 28.3764 -5.05354 12.2996
upperback 9.98241 -2.74516 3.63119
thorax -4.63661 -1.17602 -2.09332
lowerneck 3.97855 -3.23524 -6.87352
upperneck -8.54909 -3.8189 12.9229
head -2.76424 -2.23903 5.19631
rclavicle 6.36111e-015 -3.11595e-014
rhumerus 90.0841 -34.5518 -21.9934
rradius 23.3849
rwrist 10.1037
rhand -5.37421 -15.4192
rfingers 7.12502
rthumb 20.4338 -44.364
lclavicle 6.36111e-015 -3.11595e-014
lhumerus 91.4327 32.749 23.7363
lradius 24.557
lwrist 16.7051
lhand -9.20821 11.2931
lfingers 7.12502
lthumb 16.746 40.5909
rfemur -108.272 3.93022 10.4989
rtibia 86.3701
rfoot -15.8712 -6.50628
rtoes -6.21848
lfemur 8.47458 20.2451 -3.403
ltibia -3.18055e-015
lfoot -28.6431 22.754
ltoes -12.1753
1141
root 2.0541 13.0344 13.2471 42.0431 11.7838 -0.780517
lowerback 28.3764 -5.14713 12.3368
upperback 9.98048 -2.85869 3.53092
thorax -4.65805 -1.22837 -2.18784
lowerneck 3.86929 -3.18019 -6.81277
upperneck -8.50337 -3.73608 12.9574
head -2.74134 -2.19681 5.19158
rclavicle 1.39149e-015 -1.87355e-014
rhumerus 89.7502 -34.4033 -21.3621
rradius 23.4745
rwrist 9.9267
rhand -6.07575 -15.3897
rfingers 7.12502
rthumb 19.7595 -44.4054
lclavicle 1.39149e-015 -1.87355e-014
lhumerus 91.3194 32.7961 23.9164
lradius 24.3677
lwrist 16.5134
lhand -9.64387 11.3308
lfingers 7.12502
lthumb 16.3266 40.6636
rfemur -108.338 3.95679 10.537
rtibia 86.5932
rfoot -16.0311 -6.34973
rtoes -6.32535
lfemur 8.61566 20.2216 -3.41111
ltibia 9.54166e-015
lfoot -29.0147 22.847
ltoes -12.1736
1142
root 2.0558 13.0131 13.2545 41.9745 11.727 -0.855258
lowerback 28.378 -5.23629 12.3703
upperback 9.97583 -2.96678 3.43947
thorax -4.68264 -1.27874 -2.27199
lowerneck 3.76394 -3.09538 -6.76244
upperneck -8.46543 -3.61317 12.9892
head -2.72533 -2.13425 5.1873
rclavicle -1.63003e-014 -5.84427e-014
rhumerus 89.226 -34.2602 -20.4651
rradius 23.6066
rwrist 9.71426
rhand -6.77481 -15.3125
rfingers 7.12502
rthumb 19.0874 -44.3959
lclavicle -1.63003e-014 -5.84427e-014
lhumerus 91.197 32.8202 24.0549
lradius 24.1991
lwrist 16.2334
lhand -10.105 11.3226
lfingers 7.12502
lthumb 15.8825 40.6913
rfemur -108.394 3.99672 10.6143
rtibia 86.8119
rfoot -16.1944 -6.15867
rtoes -6.45415
lfemur 8.78019 20.2129 -3.37404
ltibia 2.54444e-014
lfoot -29.3875 22.912
ltoes -12.1464
1143
root 2.05723 12.9917 13.2617 41.8973 11.6686 -0.962674
lowerback 28.382 -5.31266 12.3957
upperback 9.967 -3.05992 3.3595
thorax -4.71096 -1.32284 -2.34346
lowerneck 3.66259 -2.986 -6.73208
upperneck -8.43768 -3.4577 13.0174
head -2.71597 -2.05485 5.18504
rclavicle -1.07344e-014 -5.51627e-014
rhumerus 88.5745 -34.124 -19.3949
rradius 23.7706
rwrist 9.44088
rhand -7.39632 -15.2135
rfingers 7.12502
rthumb 18.4896 -44.3548
lclavicle -1.07344e-014 -5.51627e-014
lhumerus 91.0265 32.8322 24.0888
lradius 24.0816
lwrist 16.0069
lhand -10.5036 11.2879
lfingers 7.12502
lthumb 15.4986 40.6867
rfemur -108.442 4.0501 10.7309
rtibia 87.0204
rfoot -16.3594 -5.93343
rtoes -6.60332
lfemur 8.96272 20.2243 -3.30027
ltibia 6.36111e-015
lfoot -29.7643 22.9485
ltoes -12.0812
1144
root 2.05846 12.9704 13.2689 41.8178 11.6022 -1.099
lowerback 28.3894 -5.36841 12.4082
upperback 9.95335 -3.12947 3.2923
thorax -4.74269 -1.35672 -2.40115
lowerneck 3.56492 -2.86022 -6.72915
upperneck -8.42262 -3.28107 13.0418
head -2.71267 -1.96415 5.18624
rclavicle -1.39149e-014 4.09993e-014
rhumerus 87.8693 -33.9971 -18.2643
rradius 23.95
rwrist 9.0888
rhand -7.88122 -15.1255
rfingers 7.12502
rthumb 18.0231 -44.3104
lclavicle -1.39149e-014 4.09993e-014
lhumerus 90.7683 32.8431 23.9526
lradius 24.0449
lwrist 15.9729
lhand -10.7779 11.2423
lfingers 7.12502
lthumb 15.2344 40.6614
rfemur -108.487 4.11547 10.8861
rtibia 87.215
rfoot -16.5213 -5.67668
rtoes -6.76782
lfemur 9.15673 20.2596 -3.20169
ltibia -3.81667e-014
lfoot -30.147 22.9604
ltoes -11.9724
1145
root 2.05955 12.9495 13.2758 41.7416 11.5226 -1.25854
lowerback 28.4005 -5.39734 12.4046
upperback 9.93486 -3.16861 3.23781
thorax -4.77695 -1.37715 -2.4456
lowerneck 3.47142 -2.72759 -6.75823
upperneck -8.42295 -3.09623 13.0633
head -2.71494 -1.8686 5.19221
rclavicle -5.96354e-016 1.13307e-014
rhumerus 87.1828 -33.8841 -17.189
rradius 24.1246
rwrist 8.65009
rhand -8.18948 -15.0844
rfingers 7.12502
rthumb 17.7265 -44.2964
lclavicle -5.96354e-016 1.13307e-014
lhumerus 90.3959 32.8606 23.5985
lradius 24.111
lwrist 16.2299
lhand -10.9038 11.1942
lfingers 7.12502
lthumb 15.1131 40.6224
rfemur -108.536 4.18994 11.0795
rtibia 87.3934
rfoot -16.6728 -5.39313
rtoes -6.93535
lfemur 9.35507 20.3205 -3.09135
ltibia 1.90833e-014
lfoot -30.5357 22.9553
ltoes -11.8225
1146
root 2.06051 12.9294 13.2826 41.673 11.427 -1.43481
lowerback 28.4155 -5.3955 12.3838
upperback 9.91209 -3.17287 3.19507
thorax -4.81249 -1.38193 -2.47889
lowerneck 3.38317 -2.59761 -6.82009
upperneck -8.44004 -2.91596 13.0833
head -2.72208 -1.77473 5.20384
rclavicle 5.51627e-015 2.38293e-014
rhumerus 86.5793 -33.7923 -16.2754
rradius 24.2721
rwrist 8.12948
rhand -8.3076 -15.1255
rfingers 7.12502
rthumb 17.6129 -44.3477
lclavicle 5.51627e-015 2.38293e-014
lhumerus 89.906 32.8874 23.0129
lradius 24.2888
lwrist 16.8092
lhand -10.8984 11.1446
lfingers 7.12502
lthumb 15.1184 40.5724
rfemur -108.592 4.26964 11.3113
rtibia 87.5557
rfoot -16.8054 -5.08943
rtoes -7.08962
lfemur 9.55065 20.4061 -2.98096
ltibia 2.8625e-014
lfoot -30.9283 22.9432
ltoes -11.6405
1147
root 2.06134 12.9103 13.2891 41.6148 11.3148 -1.6203
lowerback 28.4348 -5.36186 12.3464
upperback 9.8859 -3.14095 3.16205
thorax -4.84843 -1.37028 -2.5041
lowerneck 3.30211 -2.47836 -6.91268
upperneck -8.47338 -2.75091 13.1052
head -2.73322 -1.6881 5.22207
rclavicle -2.35063e-014 2.12203e-014
rhumerus 86.1057 -33.7303 -15.6046
rradius 24.3731
rwrist 7.54325
rhand -8.25038 -15.2792
rfingers 7.12502
rthumb 17.6679 -44.4965
lclavicle -2.35063e-014 2.12203e-014
lhumerus 89.3221 32.9209 22.223
lradius 24.5705
lwrist 17.6669
lhand -10.8133 11.0879
lfingers 7.12502
lthumb 15.2004 40.5095
rfemur -108.66 4.34976 11.5805
rtibia 87.7031
rfoot -16.9118 -4.77306
rtoes -7.21199
lfemur 9.73721 20.5129 -2.88066
ltibia -2.22639e-014
lfoot -31.3205 22.9355
ltoes -11.4397
